<svg width="138" height="22" viewBox="0 0 138 22" fill="none" xmlns="http://www.w3.org/2000/svg">
<path d="M3.025 4.22917C2.44167 4.22917 1.94583 4.04444 1.5375 3.675C1.12917 3.30555 0.925 2.83889 0.925 2.275C0.925 1.71111 1.12917 1.24444 1.5375 0.874999C1.94583 0.505554 2.44167 0.320832 3.025 0.320832C3.60833 0.320832 4.09444 0.505554 4.48333 0.874999C4.89167 1.24444 5.09583 1.71111 5.09583 2.275C5.09583 2.83889 4.89167 3.30555 4.48333 3.675C4.09444 4.04444 3.60833 4.22917 3.025 4.22917ZM1.56667 8.1375C1.56667 7.4375 1.8 6.93194 2.26667 6.62083C2.75278 6.30972 3.48194 6.15417 4.45417 6.15417V19.2792C4.45417 19.9597 4.21111 20.4653 3.725 20.7958C3.25833 21.1069 2.53889 21.2625 1.56667 21.2625V8.1375ZM8.63639 8.51667C8.63639 6.94167 9.56973 6.15417 11.4364 6.15417V7.99167C11.2419 8.18611 11.0281 8.45833 10.7947 8.80833L10.9406 8.925C11.5239 8.08889 12.2725 7.41806 13.1864 6.9125C14.1197 6.40694 15.1308 6.15417 16.2197 6.15417C17.7753 6.15417 19.01 6.63056 19.9239 7.58333C20.8378 8.51667 21.2947 9.72222 21.2947 11.2V19.2792C21.2947 19.9597 21.0517 20.4653 20.5656 20.7958C20.0989 21.1069 19.3794 21.2625 18.4072 21.2625V11.55C18.4072 10.6944 18.1544 10.0042 17.6489 9.47917C17.1433 8.95417 16.4044 8.69167 15.4322 8.69167C14.7517 8.69167 14.11 8.84722 13.5072 9.15833C12.9044 9.45 12.4281 9.84861 12.0781 10.3542C11.7281 10.8597 11.5531 11.4139 11.5531 12.0167V19.2792C11.5531 19.9792 11.31 20.4847 10.8239 20.7958C10.3572 21.1069 9.62806 21.2625 8.63639 21.2625V8.51667ZM30.5918 21.2625C29.1335 21.2625 28.0543 20.8542 27.3543 20.0375C26.6543 19.2014 26.3043 18.1125 26.3043 16.7708V8.69167H23.5043C23.5043 7.93333 23.6599 7.36944 23.971 7C24.2821 6.61111 24.7002 6.41667 25.2252 6.41667H26.3627V3.7625C26.3627 3.0625 26.596 2.55694 27.0627 2.24583C27.5293 1.93472 28.2391 1.77917 29.1918 1.77917V6.41667H33.071C33.071 7.19444 32.9057 7.76806 32.5752 8.1375C32.2641 8.50694 31.7682 8.69167 31.0877 8.69167H29.2502V16.6542C29.2502 17.3931 29.3863 17.9278 29.6585 18.2583C29.9307 18.5694 30.4168 18.725 31.1168 18.725C31.7974 18.725 32.4585 18.5403 33.1002 18.1708C33.4113 18.4819 33.5668 18.8708 33.5668 19.3375C33.5668 19.8431 33.3043 20.2903 32.7793 20.6792C32.2543 21.0681 31.5252 21.2625 30.5918 21.2625ZM41.9741 21.2625C40.788 21.2625 39.7186 21.0292 38.7658 20.5625C37.813 20.0958 37.0644 19.4542 36.52 18.6375C35.9755 17.8208 35.7033 16.9069 35.7033 15.8958V11.725C35.7033 10.675 35.9852 9.73194 36.5491 8.89583C37.1325 8.04028 37.9005 7.36944 38.8533 6.88333C39.8061 6.39722 40.8463 6.15417 41.9741 6.15417C43.1019 6.15417 44.1325 6.3875 45.0658 6.85417C45.9991 7.32083 46.738 7.97222 47.2825 8.80833C47.8269 9.625 48.0991 10.5583 48.0991 11.6083V13.4167C48.0991 13.7472 47.963 14.0389 47.6908 14.2917C47.438 14.525 47.1269 14.6417 46.7575 14.6417H38.5325V15.75C38.5325 16.6833 38.8241 17.4417 39.4075 18.025C39.9908 18.5889 40.8463 18.8708 41.9741 18.8708C43.1019 18.8708 43.9477 18.6278 44.5116 18.1417C45.095 17.6361 45.3866 16.975 45.3866 16.1583C46.0866 16.1 46.6602 16.2167 47.1075 16.5083C47.5547 16.7806 47.7783 17.1986 47.7783 17.7625C47.7783 18.3653 47.5061 18.9389 46.9616 19.4833C46.4366 20.0083 45.7269 20.4361 44.8325 20.7667C43.9575 21.0972 43.0047 21.2625 41.9741 21.2625ZM45.445 12.4542V11.6083C45.445 10.6944 45.1241 9.95556 44.4825 9.39167C43.8408 8.80833 43.0047 8.51667 41.9741 8.51667C40.9436 8.51667 40.1075 8.80833 39.4658 9.39167C38.8436 9.95556 38.5325 10.6944 38.5325 11.6083V12.4542H45.445ZM57.7057 8.69167C56.5973 8.69167 55.6834 9.0125 54.964 9.65417C54.2446 10.2958 53.8848 11.0833 53.8848 12.0167V19.2792C53.8848 19.9792 53.6418 20.4847 53.1557 20.7958C52.689 21.1069 51.9598 21.2625 50.9682 21.2625V8.51667C50.9682 6.94167 51.9015 6.15417 53.7682 6.15417V7.90417C53.5154 8.19583 53.2918 8.49722 53.0973 8.80833L53.2432 8.925C54.4682 7.07778 56.014 6.15417 57.8807 6.15417C58.6196 6.15417 59.1834 6.33889 59.5723 6.70833C59.9807 7.07778 60.1848 7.53472 60.1848 8.07917C60.1848 8.4875 60.0779 8.8375 59.864 9.12917C59.3196 8.8375 58.6001 8.69167 57.7057 8.69167ZM62.7242 8.51667C62.7242 6.94167 63.6575 6.15417 65.5242 6.15417V7.99167C65.3297 8.18611 65.1158 8.45833 64.8825 8.80833L65.0283 8.925C65.6117 8.08889 66.3603 7.41806 67.2742 6.9125C68.2075 6.40694 69.2186 6.15417 70.3075 6.15417C71.863 6.15417 73.0978 6.63056 74.0117 7.58333C74.9255 8.51667 75.3825 9.72222 75.3825 11.2V19.2792C75.3825 19.9597 75.1394 20.4653 74.6533 20.7958C74.1867 21.1069 73.4672 21.2625 72.495 21.2625V11.55C72.495 10.6944 72.2422 10.0042 71.7367 9.47917C71.2311 8.95417 70.4922 8.69167 69.52 8.69167C68.8394 8.69167 68.1978 8.84722 67.595 9.15833C66.9922 9.45 66.5158 9.84861 66.1658 10.3542C65.8158 10.8597 65.6408 11.4139 65.6408 12.0167V19.2792C65.6408 19.9792 65.3978 20.4847 64.9117 20.7958C64.445 21.1069 63.7158 21.2625 62.7242 21.2625V8.51667ZM83.5088 21.2625C81.8949 21.2625 80.5727 20.825 79.5421 19.95C78.5116 19.0556 77.9963 17.8694 77.9963 16.3917C77.9963 14.8944 78.5408 13.6986 79.6296 12.8042C80.7185 11.9097 82.1283 11.4625 83.8588 11.4625C85.6866 11.4625 87.1935 12.0847 88.3796 13.3292L88.4963 13.2125C88.2435 12.9403 87.981 12.6875 87.7088 12.4542V11.4625C87.7088 10.5292 87.4074 9.80972 86.8046 9.30417C86.2019 8.77917 85.356 8.51667 84.2671 8.51667C82.3033 8.51667 80.8838 9.275 80.0088 10.7917C79.6394 10.6361 79.338 10.4222 79.1046 10.15C78.8908 9.85833 78.7838 9.56667 78.7838 9.275C78.7838 8.73056 79.0463 8.225 79.5713 7.75833C80.0963 7.27222 80.7963 6.88333 81.6713 6.59167C82.5463 6.3 83.4796 6.15417 84.4713 6.15417C86.3769 6.15417 87.8741 6.62083 88.963 7.55417C90.0519 8.4875 90.5963 9.76111 90.5963 11.375V19.1333C90.5963 19.8722 90.3727 20.4167 89.9255 20.7667C89.4783 21.0972 88.788 21.2625 87.8546 21.2625V19.95C88.263 19.5028 88.4866 19.25 88.5255 19.1917L88.4088 19.075C87.7671 19.8139 87.0477 20.3681 86.2505 20.7375C85.4727 21.0875 84.5588 21.2625 83.5088 21.2625ZM84.1213 19.0458C85.2685 19.0458 86.163 18.8125 86.8046 18.3458C87.4463 17.8792 87.7671 17.2278 87.7671 16.3917C87.7671 15.5556 87.4463 14.8944 86.8046 14.4083C86.163 13.9222 85.288 13.6792 84.1796 13.6792C83.1491 13.6792 82.3324 13.9222 81.7296 14.4083C81.1269 14.8944 80.8255 15.5556 80.8255 16.3917C80.8255 17.2278 81.1171 17.8792 81.7005 18.3458C82.2838 18.8125 83.0908 19.0458 84.1213 19.0458ZM98.4169 21.2625C96.9196 21.2625 95.8016 20.8542 95.0627 20.0375C94.3238 19.2014 93.9544 18.1125 93.9544 16.7708V2.30417C93.9544 1.60417 94.1877 1.09861 94.6544 0.7875C95.1405 0.476388 95.8794 0.320832 96.871 0.320832V16.6542C96.871 17.3931 97.0169 17.9278 97.3085 18.2583C97.6196 18.5694 98.1252 18.725 98.8252 18.725C99.5446 18.725 100.225 18.5403 100.867 18.1708C101.159 18.5014 101.304 18.8903 101.304 19.3375C101.304 19.8431 101.042 20.2903 100.517 20.6792C100.011 21.0681 99.3113 21.2625 98.4169 21.2625ZM105.96 4.22917C105.376 4.22917 104.88 4.04444 104.472 3.675C104.064 3.30555 103.86 2.83889 103.86 2.275C103.86 1.71111 104.064 1.24444 104.472 0.874999C104.88 0.505554 105.376 0.320832 105.96 0.320832C106.543 0.320832 107.029 0.505554 107.418 0.874999C107.826 1.24444 108.03 1.71111 108.03 2.275C108.03 2.83889 107.826 3.30555 107.418 3.675C107.029 4.04444 106.543 4.22917 105.96 4.22917ZM104.501 8.1375C104.501 7.4375 104.735 6.93194 105.201 6.62083C105.687 6.30972 106.417 6.15417 107.389 6.15417V19.2792C107.389 19.9597 107.146 20.4653 106.66 20.7958C106.193 21.1069 105.474 21.2625 104.501 21.2625V8.1375ZM112.038 21C111.707 21 111.435 20.8833 111.221 20.65C111.007 20.3972 110.9 20.1056 110.9 19.775C110.9 19.5028 110.978 19.2597 111.134 19.0458L120.438 7.93333L120.292 7.81667L119.534 8.6625H113.175C112.572 8.6625 112.106 8.45833 111.775 8.05C111.464 7.64167 111.309 7.09722 111.309 6.41667H122.392C122.742 6.41667 123.014 6.53333 123.209 6.76667C123.422 6.98055 123.529 7.24306 123.529 7.55417C123.529 7.88472 123.432 8.15694 123.238 8.37083L114.021 19.425L114.167 19.5708L114.867 18.7542H121.75C122.353 18.7542 122.81 18.9681 123.121 19.3958C123.452 19.8042 123.617 20.3389 123.617 21H112.038ZM131.472 21.2625C130.286 21.2625 129.217 21.0292 128.264 20.5625C127.311 20.0958 126.563 19.4542 126.018 18.6375C125.474 17.8208 125.201 16.9069 125.201 15.8958V11.725C125.201 10.675 125.483 9.73194 126.047 8.89583C126.631 8.04028 127.399 7.36944 128.351 6.88333C129.304 6.39722 130.344 6.15417 131.472 6.15417C132.6 6.15417 133.631 6.3875 134.564 6.85417C135.497 7.32083 136.236 7.97222 136.781 8.80833C137.325 9.625 137.597 10.5583 137.597 11.6083V13.4167C137.597 13.7472 137.461 14.0389 137.189 14.2917C136.936 14.525 136.625 14.6417 136.256 14.6417H128.031V15.75C128.031 16.6833 128.322 17.4417 128.906 18.025C129.489 18.5889 130.344 18.8708 131.472 18.8708C132.6 18.8708 133.446 18.6278 134.01 18.1417C134.593 17.6361 134.885 16.975 134.885 16.1583C135.585 16.1 136.158 16.2167 136.606 16.5083C137.053 16.7806 137.276 17.1986 137.276 17.7625C137.276 18.3653 137.004 18.9389 136.46 19.4833C135.935 20.0083 135.225 20.4361 134.331 20.7667C133.456 21.0972 132.503 21.2625 131.472 21.2625ZM134.943 12.4542V11.6083C134.943 10.6944 134.622 9.95556 133.981 9.39167C133.339 8.80833 132.503 8.51667 131.472 8.51667C130.442 8.51667 129.606 8.80833 128.964 9.39167C128.342 9.95556 128.031 10.6944 128.031 11.6083V12.4542H134.943Z" fill="white"/>
</svg>
